<svg width="339" height="142" viewBox="0 0 339 142" fill="none" xmlns="http://www.w3.org/2000/svg">
<path d="M239.182 111.049V97.3693L299.534 1.87793H309.459V23.0684H302.753L257.153 95.2234V96.2964H338.428V111.049H239.182ZM303.826 139.214V106.892V100.521V1.87793H319.652V139.214H303.826Z" fill="black"/>
<path d="M169.171 141.091C159.068 141.091 150.462 138.342 143.354 132.843C136.246 127.299 130.814 119.275 127.059 108.769C123.303 98.2184 121.426 85.4773 121.426 70.5456C121.426 55.7033 123.303 43.0292 127.059 32.5234C130.859 21.9729 136.313 13.9258 143.421 8.38231C150.574 2.7941 159.157 0 169.171 0C179.186 0 187.747 2.7941 194.855 8.38231C202.008 13.9258 207.462 21.9729 211.217 32.5234C215.017 43.0292 216.917 55.7033 216.917 70.5456C216.917 85.4773 215.04 98.2184 211.284 108.769C207.529 119.275 202.097 127.299 194.989 132.843C187.881 138.342 179.275 141.091 169.171 141.091ZM169.171 126.338C179.186 126.338 186.964 121.51 192.508 111.854C198.051 102.197 200.823 88.4279 200.823 70.5456C200.823 58.6539 199.549 48.528 197.001 40.1681C194.497 31.8081 190.876 25.4375 186.137 21.0564C181.443 16.6752 175.788 14.4846 169.171 14.4846C159.247 14.4846 151.49 19.3799 145.902 29.1705C140.314 38.9163 137.52 52.708 137.52 70.5456C137.52 82.4373 138.772 92.5408 141.275 100.856C143.779 109.171 147.377 115.497 152.072 119.834C156.81 124.17 162.51 126.338 169.171 126.338Z" fill="black"/>
<path d="M0 111.049V97.3693L60.3527 1.87793H70.2774V23.0684H63.5715L17.9717 95.2234V96.2964H99.2466V111.049H0ZM64.6444 139.214V106.892V100.521V1.87793H80.4702V139.214H64.6444Z" fill="black"/>
</svg>
