<svg width="24" height="24" viewBox="0 0 24 24" fill="none" xmlns="http://www.w3.org/2000/svg">
<path d="M19.9995 15.7278V18.287C20.0004 18.5245 19.9517 18.7597 19.8563 18.9774C19.7609 19.1951 19.6211 19.3905 19.4457 19.5511C19.2702 19.7117 19.0632 19.834 18.8376 19.9101C18.6121 19.9862 18.3732 20.0145 18.1361 19.9931C15.5059 19.7078 12.9794 18.8109 10.7596 17.3742C8.69433 16.0644 6.94337 14.3169 5.63104 12.2558C4.18648 10.0303 3.28751 7.49657 3.00694 4.85976C2.98558 4.62386 3.01367 4.3861 3.08942 4.16163C3.16518 3.93716 3.28693 3.73089 3.44694 3.55596C3.60694 3.38102 3.80169 3.24125 4.01879 3.14555C4.23589 3.04985 4.47057 3.00031 4.7079 3.00008H7.27217C7.68698 2.99601 8.08913 3.14261 8.40366 3.41257C8.71818 3.68252 8.92362 4.05741 8.98168 4.46735C9.08991 5.28635 9.29063 6.09049 9.58001 6.86445C9.69501 7.16978 9.7199 7.50162 9.65173 7.82063C9.58355 8.13965 9.42518 8.43248 9.19537 8.66441L8.10983 9.7478C9.32662 11.8835 11.0984 13.6518 13.2384 14.8662L14.3239 13.7828C14.5563 13.5534 14.8497 13.3954 15.1694 13.3273C15.489 13.2593 15.8215 13.2841 16.1274 13.3989C16.9029 13.6877 17.7087 13.888 18.5293 13.9961C18.9445 14.0545 19.3237 14.2632 19.5948 14.5825C19.8658 14.9018 20.0099 15.3094 19.9995 15.7278Z" stroke="#3F86F9" stroke-width="2" stroke-linecap="round" stroke-linejoin="round"/>
</svg>
