<svg width="91" height="30" viewBox="0 0 91 30" fill="none" xmlns="http://www.w3.org/2000/svg">
<path d="M4.04232 13.1914C3.94653 14.5899 3.71663 15.7968 3.1419 16.6015H9.80884V5.66231H4.44463C4.368 7.40568 4.2339 10.5476 4.04232 13.1914ZM1.66674 18L1.57095 20.4905H0.191579V16.6015H1.05368C2.03074 16.2949 2.33726 15.0688 2.548 13.0573C2.87368 9.264 2.96947 4.3021 2.96947 4.3021H11.4373V16.6015H12.9699V20.4905H11.5905L11.4947 18H1.66674ZM15.0824 18V4.3021H23.0712V5.66231H16.7491V10.3177H21.8451V11.6779H16.7491V16.6398H23.416V18H15.0824ZM28.6731 13.1914C28.5198 15.7968 27.8301 18.1533 25.4354 18.1533C24.9181 18.1533 24.6882 18 24.6882 18V16.3907C24.6882 16.3907 24.9181 16.4674 25.4354 16.4674C26.5274 16.4674 26.9297 15.3371 27.1213 13.0573C27.4087 9.264 27.447 4.3021 27.447 4.3021H35.6849V18H34.0181V5.70063H28.9796C28.9413 7.46316 28.8455 10.5667 28.6731 13.1914ZM44.8702 18.1724C40.9045 18.1724 38.4715 15.452 38.4715 11.2373V11.084C38.4715 7.02253 41.1919 4.09137 44.9085 4.09137C47.763 4.09137 50.1769 5.60484 50.4643 8.57431H48.8167C48.4719 6.4861 47.2649 5.41326 44.9277 5.41326C42.0923 5.41326 40.1957 7.61642 40.1957 11.0648V11.2181C40.1957 14.7048 41.9582 16.8122 44.9085 16.8122C47.15 16.8122 48.7018 15.6819 49.0466 13.4596H50.5984C50.1195 16.6206 47.9355 18.1724 44.8702 18.1724ZM53.1362 18V4.3021H54.803V10.5093H62.0063V4.3021H63.6731V18H62.0063V11.9078H54.803V18H53.1362ZM71.8242 5.68147L69.4486 12.7316H74.1997L71.8242 5.68147ZM66.0959 18L70.8088 4.3021H72.9928L77.629 18H75.9814L74.6404 14.0535H68.9888L67.6669 18H66.0959ZM89.2354 14.0535C89.2354 16.6398 87.4729 18 84.7333 18H80.0396V4.3021H88.1242V5.66231H81.668V10.0878H84.7141C87.4729 10.0878 89.2354 11.2373 89.2354 13.9768V14.0535ZM81.668 16.6973H84.695C86.6874 16.6973 87.607 15.7202 87.607 14.0535V13.9768C87.607 12.2909 86.6682 11.3905 84.5417 11.3905H81.668V16.6973Z" fill="white"/>
<path opacity="0.8" d="M0.182 28.3398V28.1483L2.90242 25.2842C3.52505 24.6232 3.88905 24.0006 3.88905 23.3013C3.88905 22.535 3.43884 22.0752 2.66295 22.0752C1.86789 22.0752 1.35063 22.5254 1.21653 23.5983H0.440632C0.546 22.2572 1.36021 21.4047 2.66295 21.4047C3.92737 21.4047 4.732 22.1518 4.732 23.3301C4.732 24.173 4.19558 24.9968 3.35263 25.8206L1.46558 27.6597H4.77032V28.3398H0.182ZM8.55235 28.4261C6.91435 28.4261 5.83193 27.1042 5.83193 25.1117V24.7286C5.83193 22.7074 6.85688 21.4047 8.5332 21.4047C10.2191 21.4047 11.2057 22.7553 11.2057 24.7094V25.0926C11.2057 27.085 10.2382 28.4261 8.55235 28.4261ZM8.55235 27.7364C9.74972 27.7364 10.3628 26.8168 10.3628 25.083V24.6998C10.3628 23.1097 9.69225 22.0752 8.5332 22.0752C7.37414 22.0752 6.68446 23.0331 6.68446 24.719V25.1022C6.68446 26.8359 7.41246 27.7364 8.55235 27.7364ZM16.5442 25.9355C16.4676 27.2383 16.1227 28.4165 14.9253 28.4165C14.6667 28.4165 14.5518 28.3398 14.5518 28.3398V27.5352C14.5518 27.5352 14.6667 27.5735 14.9253 27.5735C15.4713 27.5735 15.6725 27.0084 15.7683 25.8685C15.912 23.9718 15.9311 21.4909 15.9311 21.4909H20.0501V28.3398H19.2167V22.1902H16.6975C16.6783 23.0714 16.6304 24.6232 16.5442 25.9355ZM21.7786 28.3398V21.4909H25.7731V22.171H22.612V24.4987H25.16V25.1788H22.612V27.6597H25.9455V28.3398H21.7786ZM28.6123 28.3398V22.171H26.6199V21.4909H31.4381V22.171H29.4457V28.3398H28.6123ZM35.1087 28.3398V21.4909H35.9421V24.5945H39.5438V21.4909H40.3771V28.3398H39.5438V25.2937H35.9421V28.3398H35.1087ZM44.4527 22.1806L43.2649 25.7056H45.6405L44.4527 22.1806ZM41.5886 28.3398L43.945 21.4909H45.037L47.3551 28.3398H46.5313L45.8608 26.3666H43.035L42.374 28.3398H41.5886ZM51.0955 28.3398V21.4909H53.04C54.3523 21.4909 55.4347 22.0656 55.4347 23.4929V23.5312C55.4347 24.9872 54.3427 25.5524 53.04 25.5524H51.9288V28.3398H51.0955ZM51.9288 24.8914H53.0975C54.0745 24.8914 54.6014 24.4125 54.6014 23.5312V23.4929C54.6014 22.5254 54.0266 22.1614 53.0975 22.1614H51.9288V24.8914ZM62.6482 21.4909V28.3398H61.8148V21.4909H62.6482ZM56.6613 28.3398V21.4909H57.4947V24.2784H58.558C59.8607 24.2784 60.9527 24.8052 60.9527 26.2612V26.2995C60.9527 27.7268 59.8703 28.3398 58.558 28.3398H56.6613ZM57.4947 27.6693H58.6155C59.5446 27.6693 60.1193 27.267 60.1193 26.2995V26.2612C60.1193 25.3799 59.5925 24.9393 58.6155 24.9393H57.4947V27.6693ZM64.3694 28.3398V21.4909H65.2028V24.5945H68.8045V21.4909H69.6378V28.3398H68.8045V25.2937H65.2028V28.3398H64.3694ZM71.3665 28.3398V21.4909H72.1999V24.7861L75.179 21.4813H76.1081L73.062 24.8148L76.2614 28.3398H75.2556L72.1999 24.9968V28.3398H71.3665ZM77.2692 28.3398V21.4909H81.2636V22.171H78.1026V24.4987H80.6506V25.1788H78.1026V27.6597H81.436V28.3398H77.2692Z" fill="white"/>
</svg>
