<svg width="114" height="39" viewBox="0 0 114 39" fill="none" xmlns="http://www.w3.org/2000/svg">
<path d="M5.064 15.976C4.944 17.728 4.656 19.24 3.936 20.248H12.288V6.544H5.568C5.472 8.728 5.304 12.664 5.064 15.976ZM2.088 22L1.968 25.12H0.24V20.248H1.32C2.544 19.864 2.928 18.328 3.192 15.808C3.6 11.056 3.72 4.84 3.72 4.84H14.328V20.248H16.248V25.12H14.52L14.4 22H2.088ZM18.8944 22V4.84H28.9024V6.544H20.9824V12.376H27.3664V14.08H20.9824V20.296H29.3344V22H18.8944ZM35.9201 15.976C35.7281 19.24 34.8641 22.192 31.8641 22.192C31.2161 22.192 30.9281 22 30.9281 22V19.984C30.9281 19.984 31.2161 20.08 31.8641 20.08C33.2321 20.08 33.7361 18.664 33.9761 15.808C34.3361 11.056 34.3841 4.84 34.3841 4.84H44.7041V22H42.6161V6.592H36.3041C36.2561 8.8 36.1361 12.688 35.9201 15.976ZM56.211 22.216C51.243 22.216 48.195 18.808 48.195 13.528V13.336C48.195 8.248 51.603 4.576 56.259 4.576C59.835 4.576 62.859 6.472 63.219 10.192H61.155C60.723 7.576 59.211 6.232 56.283 6.232C52.731 6.232 50.355 8.992 50.355 13.312V13.504C50.355 17.872 52.563 20.512 56.259 20.512C59.067 20.512 61.011 19.096 61.443 16.312H63.387C62.787 20.272 60.051 22.216 56.211 22.216ZM66.5663 22V4.84H68.6543V12.616H77.6783V4.84H79.7663V22H77.6783V14.368H68.6543V22H66.5663ZM89.9775 6.568L87.0015 15.4H92.9535L89.9775 6.568ZM82.8015 22L88.7055 4.84H91.4415L97.2495 22H95.1855L93.5055 17.056H86.4255L84.7695 22H82.8015ZM111.789 17.056C111.789 20.296 109.581 22 106.149 22H100.269V4.84H110.397V6.544H102.309V12.088H106.125C109.581 12.088 111.789 13.528 111.789 16.96V17.056ZM102.309 20.368H106.101C108.597 20.368 109.749 19.144 109.749 17.056V16.96C109.749 14.848 108.573 13.72 105.909 13.72H102.309V20.368Z" fill="#3F86F9"/>
<path opacity="0.8" d="M0.228 36V35.76L3.636 32.172C4.416 31.344 4.872 30.564 4.872 29.688C4.872 28.728 4.308 28.152 3.336 28.152C2.34 28.152 1.692 28.716 1.524 30.06H0.552C0.684 28.38 1.704 27.312 3.336 27.312C4.92 27.312 5.928 28.248 5.928 29.724C5.928 30.78 5.256 31.812 4.2 32.844L1.836 35.148H5.976V36H0.228ZM10.7139 36.108C8.66194 36.108 7.30594 34.452 7.30594 31.956V31.476C7.30594 28.944 8.58994 27.312 10.6899 27.312C12.8019 27.312 14.0379 29.004 14.0379 31.452V31.932C14.0379 34.428 12.8259 36.108 10.7139 36.108ZM10.7139 35.244C12.2139 35.244 12.9819 34.092 12.9819 31.92V31.44C12.9819 29.448 12.1419 28.152 10.6899 28.152C9.23794 28.152 8.37394 29.352 8.37394 31.464V31.944C8.37394 34.116 9.28594 35.244 10.7139 35.244ZM20.7257 32.988C20.6297 34.62 20.1977 36.096 18.6977 36.096C18.3737 36.096 18.2297 36 18.2297 36V34.992C18.2297 34.992 18.3737 35.04 18.6977 35.04C19.3817 35.04 19.6337 34.332 19.7537 32.904C19.9337 30.528 19.9577 27.42 19.9577 27.42H25.1177V36H24.0737V28.296H20.9177C20.8937 29.4 20.8337 31.344 20.7257 32.988ZM27.2831 36V27.42H32.2871V28.272H28.3271V31.188H31.5191V32.04H28.3271V35.148H32.5031V36H27.2831ZM35.844 36V28.272H33.348V27.42H39.384V28.272H36.888V36H35.844ZM43.9823 36V27.42H45.0263V31.308H49.5383V27.42H50.5823V36H49.5383V32.184H45.0263V36H43.9823ZM55.688 28.284L54.2 32.7H57.176L55.688 28.284ZM52.1 36L55.052 27.42H56.42L59.324 36H58.292L57.452 33.528H53.912L53.084 36H52.1ZM64.0097 36V27.42H66.4457C68.0897 27.42 69.4457 28.14 69.4457 29.928V29.976C69.4457 31.8 68.0777 32.508 66.4457 32.508H65.0537V36H64.0097ZM65.0537 31.68H66.5177C67.7417 31.68 68.4017 31.08 68.4017 29.976V29.928C68.4017 28.716 67.6817 28.26 66.5177 28.26H65.0537V31.68ZM78.4823 27.42V36H77.4383V27.42H78.4823ZM70.9823 36V27.42H72.0263V30.912H73.3583C74.9903 30.912 76.3583 31.572 76.3583 33.396V33.444C76.3583 35.232 75.0023 36 73.3583 36H70.9823ZM72.0263 35.16H73.4303C74.5943 35.16 75.3143 34.656 75.3143 33.444V33.396C75.3143 32.292 74.6543 31.74 73.4303 31.74H72.0263V35.16ZM80.6386 36V27.42H81.6826V31.308H86.1946V27.42H87.2386V36H86.1946V32.184H81.6826V36H80.6386ZM89.4042 36V27.42H90.4482V31.548L94.1802 27.408H95.3442L91.5282 31.584L95.5362 36H94.2762L90.4482 31.812V36H89.4042ZM96.7988 36V27.42H101.803V28.272H97.8428V31.188H101.035V32.04H97.8428V35.148H102.019V36H96.7988Z" fill="#3F86F9"/>
</svg>
