<svg width="44" height="46" viewBox="0 0 44 46" fill="none" xmlns="http://www.w3.org/2000/svg">
<path  d="M43.5133 42.9828L31.5578 10.1094L33.6883 4.25H36.1258C36.6231 4.25 37.1 4.05246 37.4516 3.70082C37.8033 3.34919 38.0008 2.87228 38.0008 2.375C38.0008 1.87772 37.8033 1.40081 37.4516 1.04918C37.1 0.697544 36.6231 0.5 36.1258 0.5H13.6258C13.1285 0.5 12.6516 0.697544 12.3 1.04918C11.9484 1.40081 11.7508 1.87772 11.7508 2.375C11.7508 2.87228 11.9484 3.34919 12.3 3.70082C12.6516 4.05246 13.1285 4.25 13.6258 4.25H14.6993L0.613315 42.9828C0.528925 43.2144 0.491026 43.4604 0.501788 43.7066C0.51255 43.9529 0.571762 44.1946 0.676034 44.4179C0.780307 44.6413 0.927594 44.8419 1.10947 45.0082C1.29135 45.1746 1.50424 45.3035 1.73597 45.3875C1.94125 45.4613 2.15767 45.4994 2.37582 45.5C2.76087 45.5 3.1366 45.3815 3.45193 45.1605C3.76726 44.9395 4.00691 44.6268 4.13832 44.2648L6.41644 38H17.4321L15.618 42.9828C15.5336 43.2144 15.4957 43.4604 15.5065 43.7066C15.5172 43.9529 15.5765 44.1946 15.6807 44.4179C15.785 44.6413 15.9323 44.8419 16.1142 45.0082C16.296 45.1746 16.5089 45.3035 16.7407 45.3875C16.9445 45.4608 17.1592 45.4988 17.3758 45.5C17.7609 45.5 18.1366 45.3815 18.4519 45.1605C18.7673 44.9395 19.0069 44.6268 19.1383 44.2648L23.4696 32.375H35.6571L39.9813 44.2648C40.1131 44.6279 40.3538 44.9414 40.6705 45.1625C40.9873 45.3836 41.3646 45.5015 41.7508 45.5C41.969 45.4994 42.1854 45.4613 42.3907 45.3875C42.6224 45.3035 42.8353 45.1746 43.0172 45.0082C43.199 44.8419 43.3463 44.6413 43.4506 44.4179C43.5549 44.1946 43.6141 43.9529 43.6248 43.7066C43.6356 43.4604 43.5977 43.2144 43.5133 42.9828ZM22.8883 23H11.8727L14.5985 15.5H25.6141L22.8883 23ZM29.7063 4.25L26.9711 11.75H15.9696L18.6883 4.25H29.7063ZM7.7805 34.25L10.5086 26.75H21.5243L18.7821 34.25H7.7805ZM24.8243 28.625L29.5633 15.5961L34.3 28.625H24.8243Z" fill="black"/>
</svg>
