<svg width="52" height="52" viewBox="0 0 52 52" fill="none" xmlns="http://www.w3.org/2000/svg">
<path d="M39.1659 0.444336V21.6341H41.1572V20.1434H46.2462V21.6341H48.2375V0.444336H46.2462V4.59711H41.1572V0.444336H39.1659ZM41.1572 6.51378H46.2462V11.4119H41.1572V6.51378ZM41.1572 13.3286H46.2462V18.2267H41.1572V13.3286ZM0.445312 23.5508V28.449H51.5564V23.5508H0.445312ZM3.76422 30.3656V51.5554H5.75556V47.4027H10.8445V51.5554H12.8359V30.3656H10.8445V31.8564H5.75556V30.3656H3.76422ZM5.75556 33.773H10.8445V38.6712H5.75556V33.773ZM5.75556 40.5879H10.8445V45.486H5.75556V40.5879Z" fill="black"/>
</svg>
