<svg width="38" height="48" viewBox="0 0 38 48" fill="none" xmlns="http://www.w3.org/2000/svg">
<path d="M11.586 16.2692L11.5818 16.2713L11.5755 16.2755L11.586 16.2692ZM32.4772 15.8747C32.3312 15.7331 32.1692 15.6091 31.9945 15.5055C31.7472 15.3591 31.4726 15.2653 31.1878 15.2298C30.903 15.1943 30.6139 15.2179 30.3385 15.2992C30.0631 15.3805 29.8073 15.5177 29.5867 15.7023C29.3662 15.8869 29.1856 16.115 29.0562 16.3725C28.3334 17.8048 27.3363 19.0795 26.1222 20.1235C26.3083 19.072 26.4024 18.006 26.4034 16.9379C26.4074 13.6893 25.5549 10.4977 23.9328 7.68792C22.3106 4.87817 19.9768 2.55067 17.1688 0.942403C16.8593 0.765673 16.5103 0.670941 16.1544 0.667113C15.7985 0.663285 15.4475 0.750486 15.1344 0.920519C14.8213 1.09055 14.5563 1.33783 14.3644 1.63911C14.1725 1.94039 14.06 2.28578 14.0374 2.6428C13.9199 4.64298 13.3997 6.59836 12.5082 8.39049C11.6168 10.1826 10.3727 11.7742 8.85133 13.0688L8.36861 13.4633C6.77692 14.5397 5.3681 15.8668 4.19624 17.3936C2.37508 19.6997 1.11354 22.4007 0.511665 25.2822C-0.0902075 28.1637 -0.0158505 31.1466 0.728839 33.9942C1.47353 36.8419 2.86806 39.4759 4.80184 41.6874C6.73561 43.8989 9.15543 45.6271 11.8694 46.7349C12.188 46.8653 12.5336 46.9149 12.8758 46.8795C13.218 46.844 13.5463 46.7245 13.8318 46.5316C14.1173 46.3386 14.3512 46.078 14.5129 45.7728C14.6747 45.4676 14.7593 45.1272 14.7594 44.7814C14.7576 44.5579 14.7223 44.336 14.6544 44.1231C14.1849 42.349 14.0496 40.5022 14.2557 38.6781C16.2421 42.4429 19.4303 45.427 23.3077 47.1505C23.7808 47.3631 24.3155 47.3917 24.8083 47.2307C27.8714 46.2367 30.6308 44.472 32.8244 42.1042C35.018 39.7364 36.5728 36.8442 37.3413 33.7023C38.1097 30.5603 38.0662 27.2731 37.2149 24.1528C36.3636 21.0326 34.7327 18.183 32.4772 15.8747ZM24.2815 42.9438C22.452 42.012 20.8381 40.7036 19.5446 39.1036C18.2512 37.5036 17.3073 35.6478 16.7742 33.6571C16.6112 32.9866 16.4851 32.3077 16.3964 31.6233C16.3367 31.1876 16.143 30.7814 15.8423 30.4618C15.5416 30.1421 15.149 29.925 14.7195 29.8407C14.5874 29.8149 14.4532 29.8022 14.3186 29.8027C13.9499 29.8023 13.5875 29.8996 13.2681 30.0848C12.9486 30.27 12.6834 30.5365 12.499 30.8575C10.758 33.877 9.88261 37.3221 9.96997 40.811C8.4382 39.6142 7.15798 38.1236 6.20354 36.4258C5.2491 34.7279 4.63942 32.8565 4.40984 30.9201C4.18026 28.9836 4.33534 27.0206 4.8661 25.1448C5.39687 23.2691 6.29274 21.5179 7.50181 19.9927C8.41986 18.7941 9.52733 17.755 10.7801 16.9168C10.8349 16.8815 10.8875 16.8427 10.9375 16.8008C10.9375 16.8008 11.5587 16.2839 11.5797 16.2734C14.5709 13.7313 16.6986 10.3145 17.6662 6.49928C19.9527 8.62449 21.4771 11.4491 22.0027 14.5345C22.5283 17.6199 22.0257 20.7935 20.573 23.5623C20.3807 23.9319 20.3018 24.3504 20.3461 24.7651C20.3903 25.1797 20.5559 25.5719 20.8218 25.892C21.0877 26.2122 21.4421 26.4459 21.8401 26.5637C22.2381 26.6815 22.6619 26.678 23.0579 26.5538C26.2727 25.5404 29.1014 23.5613 31.1634 20.883C32.4032 22.7231 33.2137 24.8208 33.5348 27.0196C33.8558 29.2185 33.6789 31.4618 33.0174 33.5824C32.3559 35.703 31.2268 37.6461 29.7142 39.267C28.2016 40.8879 26.3446 42.1447 24.2815 42.9438Z" fill="black"/>
</svg>
