<svg width="60" height="60" viewBox="0 0 60 60" fill="none" xmlns="http://www.w3.org/2000/svg">
<g>
<path d="M31.875 48.0557V36.8057H28.125V48.0557H9.375V51.8057H50.625V48.0557H31.875Z" fill="black"/>
<path d="M16.875 27.4307C17.9105 27.4307 18.75 26.5912 18.75 25.5557C18.75 24.5201 17.9105 23.6807 16.875 23.6807C15.8395 23.6807 15 24.5201 15 25.5557C15 26.5912 15.8395 27.4307 16.875 27.4307Z" fill="black"/>
<path d="M48.75 33.0557H11.25C10.2557 33.0547 9.30249 32.6593 8.59945 31.9562C7.8964 31.2532 7.50099 30.2999 7.5 29.3057V21.8057C7.50099 20.8114 7.8964 19.8582 8.59945 19.1551C9.30249 18.4521 10.2557 18.0567 11.25 18.0557H48.75C49.7443 18.0567 50.6975 18.4521 51.4006 19.1551C52.1036 19.8582 52.499 20.8114 52.5 21.8057V29.3057C52.499 30.2999 52.1036 31.2532 51.4006 31.9562C50.6975 32.6593 49.7443 33.0547 48.75 33.0557ZM11.25 21.8057V29.3057H48.75V21.8057H11.25Z" fill="black"/>
</g>
</svg>
